<?xml version="1.0" encoding="utf-8"?>
<!-- Generator: Adobe Illustrator 25.0.1, SVG Export Plug-In . SVG Version: 6.00 Build 0)  -->
<svg version="1.1" id="Ebene_1" xmlns="http://www.w3.org/2000/svg" xmlns:xlink="http://www.w3.org/1999/xlink" x="0px" y="0px"
	 viewBox="0 0 256 256" style="enable-background:new 0 0 256 256;" xml:space="preserve">
<style type="text/css">
	.st0{clip-path:url(#SVGID_2_);fill:#B4383D;}
	.st1{clip-path:url(#SVGID_2_);fill:#C36065;}
	.st2{clip-path:url(#SVGID_2_);fill:#F9F9F9;}
</style>
<g>
	<defs>
		<rect id="SVGID_1_" width="256" height="256"/>
	</defs>
	<clipPath id="SVGID_2_">
		<use xlink:href="#SVGID_1_"  style="overflow:visible;"/>
	</clipPath>
	<path class="st0" d="M240.9,256H15.1C6.8,256,0,249.2,0,240.9V15.1C0,6.8,6.8,0,15.1,0h225.8c8.3,0,15.1,6.8,15.1,15.1v225.8
		C256,249.2,249.2,256,240.9,256"/>
	<path class="st0" d="M240.9,256H15.1C6.8,256,0,249.2,0,240.9V15.1c0-4.2,1.7-7.9,4.4-10.7"/>
	<path class="st1" d="M4.4,4.4C7.1,1.7,10.9,0,15.1,0h225.8c8.3,0,15.1,6.8,15.1,15.1v225.8c0,4.2-1.7,7.9-4.4,10.7"/>
	<path class="st2" d="M220.5,213.9h-76.3c-2.5,0-4.5-2-4.5-4.5c0-2.5,2-4.5,4.5-4.5h76.3c2.5,0,4.5,2,4.5,4.5
		C225,211.8,223,213.9,220.5,213.9"/>
	<path class="st2" d="M215.8,43.4h-64.2c-0.6,0-1.1-0.2-1.5-0.6l-15.2-15.2c-3.3-3.3-10-4.1-14.4-0.2l-16,15.4
		c-0.4,0.4-0.9,0.6-1.5,0.6H40.2c-5.1,0-9.1,4.1-9.1,9.1v129.8c0,5.1,4.1,9.1,9.1,9.1h175.6c5.1,0,9.1-4.1,9.1-9.1V52.6
		C225,47.5,220.9,43.4,215.8,43.4 M126.5,34c0.6-0.6,1.5-0.6,2,0l0,0l8.9,8.9c0.2,0.2,0.1,0.6-0.2,0.6h-19.6c-0.3,0-0.4-0.4-0.2-0.6
		L126.5,34z M203.7,173.5H52.3c-1.8,0-3.3-1.5-3.3-3.3V64.7c0-1.8,1.5-3.3,3.3-3.3h151.4c1.8,0,3.3,1.5,3.3,3.3v105.5
		C207,172,205.5,173.5,203.7,173.5"/>
</g>
</svg>
